<svg xmlns="http://www.w3.org/2000/svg" xmlns:xlink="http://www.w3.org/1999/xlink" viewBox="0,0,256,256" width="144px" height="144px" fill-rule="nonzero"><g fill="none" fill-rule="nonzero" stroke="none" stroke-width="none" stroke-linecap="none" stroke-linejoin="none" stroke-miterlimit="10" stroke-dasharray="" stroke-dashoffset="0" font-family="none" font-weight="none" font-size="none" text-anchor="none" style="mix-blend-mode: normal"><g transform="scale(5.33333,5.33333)"><path d="M24.855,7.73l-13.722,4.902c-0.891,0.318 -1.437,1.217 -1.309,2.154l3.59,26.341c0.103,0.758 0.63,1.39 1.356,1.63l15.064,4.962c0.424,0.14 0.882,0.134 1.302,-0.017l10.174,-3.654c0.686,-0.246 1.183,-0.846 1.299,-1.565l4.216,-26.226c0.156,-0.971 -0.417,-1.912 -1.352,-2.218l-19.323,-6.326c-0.421,-0.138 -0.877,-0.132 -1.295,0.017z" fill="#5289c1" stroke="none" stroke-width="1" stroke-linecap="butt" stroke-linejoin="miter"></path><path d="M21.5,3.5v10.521" fill="none" stroke="#18193f" stroke-width="3" stroke-linecap="round" stroke-linejoin="round"></path><path d="M23.403,28.762l-0.025,-0.077l-1.422,-2.889l-2.543,0.725l2.007,4.145l-2.331,-0.848l-0.075,-1.191l-1.33,2.353l1.68,3.418l-0.061,-1.186l1.785,0.65c0.025,0.012 0.05,0.022 0.074,0.031c0.181,0.066 0.342,0.042 0.452,-0.222l1.786,-3.011c-0.003,0.004 -0.006,0.008 -0.01,0.013c0.249,-0.414 0.357,-1.077 0.013,-1.911z" fill="#18193f" stroke="none" stroke-width="1" stroke-linecap="butt" stroke-linejoin="miter"></path><path d="M20.668,23.181l-0.992,-2.02c-0.093,-0.222 -0.229,-0.412 -0.51,-0.514c-0.033,-0.012 -0.067,-0.023 -0.104,-0.032l-3.573,-1.301c-0.018,-0.008 -0.036,-0.015 -0.052,-0.021c-0.037,-0.014 -0.068,-0.023 -0.09,-0.031l-0.085,-0.031c-0.018,-0.007 -0.036,-0.014 -0.054,-0.02c-0.568,-0.207 -1.227,-0.216 -1.593,0.269l-0.031,0.049l-1.116,1.965l2.756,2.654l1.67,-2.705l1.21,2.47l-0.89,0.262l3.032,1.089l1.325,-2.332z" fill="#18193f" stroke="none" stroke-width="1" stroke-linecap="butt" stroke-linejoin="miter"></path><path d="M17.07,29.121l-3.889,-1.415l1.029,-1.802l0.978,0.934l-1.716,-3.454l-3.012,-1.096l0.972,0.947l-0.792,1.378c-0.099,0.151 -0.135,0.341 0.08,0.735l1.99,4.094c0.241,0.675 0.85,1.597 1.761,2.03l0.063,0.031l2.545,0.926z" fill="#18193f" stroke="none" stroke-width="1" stroke-linecap="butt" stroke-linejoin="miter"></path><path d="M6.554,16.139l-0.949,-6.961" fill="none" stroke="#18193f" stroke-width="3" stroke-linecap="round" stroke-linejoin="round"></path><path d="M43.095,10.57l-4.487,27.912c-0.116,0.719 -0.613,1.319 -1.299,1.565l-10.174,3.654c-0.42,0.151 -0.878,0.157 -1.302,0.017l-15.063,-4.962c-0.726,-0.239 -1.253,-0.872 -1.356,-1.629l-2.022,-14.839" fill="none" stroke="#18193f" stroke-width="3" stroke-linecap="round" stroke-linejoin="round"></path><path d="M26.488,16.139v27.795" fill="none" stroke="#18193f" stroke-width="3" stroke-linecap="round" stroke-linejoin="round"></path><path d="M33.082,13.928l10.013,-3.358l-21.595,-7.07l-15.895,5.678l20.883,6.961" fill="none" stroke="#18193f" stroke-width="3" stroke-linecap="round" stroke-linejoin="round"></path></g></g></svg>